P3
16 16
255
0 0 0 0 0 0 0 0 0 0 0 0 136 221 136 136 221 136 136 221 136 136 221 136 
136 221 136 136 221 136 136 221 136 136 221 136 0 0 0 0 0 0 0 0 0 0 0 0 
0 0 0 0 0 0 136 221 136 136 221 136 0 238 0 0 238 0 0 238 0 0 238 0 
0 238 0 0 238 0 0 238 0 0 238 0 136 221 136 136 221 136 0 0 0 0 0 0 
0 0 0 136 221 136 0 238 0 0 238 0 0 238 0 0 238 0 0 238 0 0 238 0 
0 238 0 0 238 0 0 238 0 0 238 0 0 238 0 0 238 0 136 221 136 0 0 0 
0 0 0 136 221 136 0 238 0 0 238 0 255 255 255 255 255 255 255 255 255 0 238 0 
0 238 0 255 255 255 255 255 255 255 255 255 0 238 0 0 238 0 136 221 136 0 0 0 
136 221 136 0 238 0 0 238 0 0 238 0 255 255 255 255 255 255 255 255 255 0 238 0 
0 238 0 255 255 255 255 255 255 255 255 255 0 238 0 0 238 0 0 238 0 136 221 136 
136 221 136 0 238 0 0 238 0 0 238 0 255 255 255 0 0 0 255 255 255 0 238 0 
0 238 0 255 255 255 0 0 0 255 255 255 0 238 0 0 238 0 0 238 0 136 221 136 
136 221 136 0 238 0 0 238 0 0 238 0 255 255 255 0 0 0 255 255 255 0 238 0 
0 238 0 255 255 255 0 0 0 255 255 255 0 238 0 0 238 0 0 238 0 136 221 136 
136 221 136 0 238 0 0 238 0 0 238 0 0 238 0 0 238 0 0 238 0 0 238 0 
0 238 0 0 238 0 0 238 0 0 238 0 0 238 0 0 238 0 0 238 0 136 221 136 
136 221 136 0 238 0 0 238 0 0 238 0 0 238 0 0 238 0 136 0 0 136 0 0 
136 0 0 136 0 0 0 238 0 0 238 0 0 238 0 0 238 0 0 238 0 136 221 136 
136 221 136 0 238 0 0 238 0 0 238 0 0 238 0 136 0 0 136 0 0 136 0 0 
136 0 0 136 0 0 136 0 0 0 238 0 0 238 0 0 238 0 0 238 0 136 221 136 
0 0 0 136 221 136 0 238 0 0 238 0 0 238 0 136 0 0 136 0 0 255 0 0 
255 0 0 136 0 0 136 0 0 0 238 0 0 238 0 0 238 0 136 221 136 0 0 0 
0 0 0 136 221 136 0 238 0 0 238 0 136 0 0 136 0 0 136 0 0 136 0 0 
136 0 0 136 0 0 136 0 0 136 0 0 0 238 0 0 238 0 136 221 136 0 0 0 
0 0 0 0 0 0 136 221 136 0 238 0 0 238 0 0 238 0 0 238 0 0 238 0 
0 238 0 0 238 0 0 238 0 0 238 0 0 238 0 136 221 136 0 0 0 0 0 0 
0 0 0 0 0 0 0 0 0 136 221 136 136 221 136 136 221 136 136 221 136 136 221 136 
136 221 136 136 221 136 136 221 136 136 221 136 136 221 136 0 0 0 0 0 0 0 0 0 
0 0 0 0 0 0 0 0 0 0 0 0 0 0 0 0 85 0 0 85 0 0 85 0 
0 85 0 0 85 0 0 85 0 0 0 0 0 0 0 0 0 0 0 0 0 0 0 0 
0 0 0 0 0 0 0 0 0 0 0 0 0 85 0 0 85 0 0 85 0 0 85 0 
0 85 0 0 85 0 0 85 0 0 85 0 0 0 0 0 0 0 0 0 0 0 0 0 