P3
16 16
255
0 0 0 0 0 0 0 0 0 0 0 0 119 34 119 119 34 119 119 34 119 119 34 119 
119 34 119 119 34 119 119 34 119 119 34 119 0 0 0 0 0 0 0 0 0 0 0 0 
0 0 0 0 0 0 119 34 119 119 34 119 255 17 255 255 17 255 255 17 255 255 17 255 
255 17 255 255 17 255 255 17 255 255 17 255 119 34 119 119 34 119 0 0 0 0 0 0 
0 0 0 119 34 119 255 17 255 255 17 255 255 17 255 255 17 255 255 17 255 255 17 255 
255 17 255 255 17 255 255 17 255 255 17 255 255 17 255 255 17 255 119 34 119 0 0 0 
0 0 0 119 34 119 255 17 255 255 17 255 0 0 0 0 0 0 0 0 0 255 17 255 
255 17 255 0 0 0 0 0 0 0 0 0 255 17 255 255 17 255 119 34 119 0 0 0 
119 34 119 255 17 255 255 17 255 255 17 255 0 0 0 0 0 0 0 0 0 255 17 255 
255 17 255 0 0 0 0 0 0 0 0 0 255 17 255 255 17 255 255 17 255 119 34 119 
119 34 119 255 17 255 255 17 255 255 17 255 0 0 0 255 255 255 0 0 0 255 17 255 
255 17 255 0 0 0 255 255 255 0 0 0 255 17 255 255 17 255 255 17 255 119 34 119 
119 34 119 255 17 255 255 17 255 255 17 255 0 0 0 255 255 255 0 0 0 255 17 255 
255 17 255 0 0 0 255 255 255 0 0 0 255 17 255 255 17 255 255 17 255 119 34 119 
119 34 119 255 17 255 255 17 255 255 17 255 255 17 255 255 17 255 255 17 255 255 17 255 
255 17 255 255 17 255 255 17 255 255 17 255 255 17 255 255 17 255 255 17 255 119 34 119 
119 34 119 255 17 255 255 17 255 255 17 255 255 17 255 255 17 255 119 255 255 119 255 255 
119 255 255 119 255 255 255 17 255 255 17 255 255 17 255 255 17 255 255 17 255 119 34 119 
119 34 119 255 17 255 255 17 255 255 17 255 255 17 255 119 255 255 119 255 255 119 255 255 
119 255 255 119 255 255 119 255 255 255 17 255 255 17 255 255 17 255 255 17 255 119 34 119 
0 0 0 119 34 119 255 17 255 255 17 255 255 17 255 119 255 255 119 255 255 0 255 255 
0 255 255 119 255 255 119 255 255 255 17 255 255 17 255 255 17 255 119 34 119 0 0 0 
0 0 0 119 34 119 255 17 255 255 17 255 119 255 255 119 255 255 119 255 255 119 255 255 
119 255 255 119 255 255 119 255 255 119 255 255 255 17 255 255 17 255 119 34 119 0 0 0 
0 0 0 0 0 0 119 34 119 255 17 255 255 17 255 255 17 255 255 17 255 255 17 255 
255 17 255 255 17 255 255 17 255 255 17 255 255 17 255 119 34 119 0 0 0 0 0 0 
0 0 0 0 0 0 0 0 0 119 34 119 119 34 119 119 34 119 119 34 119 119 34 119 
119 34 119 119 34 119 119 34 119 119 34 119 119 34 119 0 0 0 0 0 0 0 0 0 
0 0 0 0 0 0 0 0 0 0 0 0 0 0 0 255 170 255 255 170 255 255 170 255 
255 170 255 255 170 255 255 170 255 0 0 0 0 0 0 0 0 0 0 0 0 0 0 0 
0 0 0 0 0 0 0 0 0 0 0 0 255 170 255 255 170 255 255 170 255 255 170 255 
255 170 255 255 170 255 255 170 255 255 170 255 0 0 0 0 0 0 0 0 0 0 0 0 