P3
16 4
255
238 102 0 238 102 0 238 136 17 238 204 136 238 221 238 238 221 238 238 221 238 238 221 238 
238 221 238 238 221 238 238 221 238 238 221 238 238 221 238 221 51 68 221 51 68 0 0 0 
0 0 0 238 102 0 238 136 17 238 204 136 238 221 238 238 221 238 238 221 238 238 221 238 
238 221 238 238 204 34 238 204 34 238 204 34 238 204 34 221 51 68 221 51 68 221 51 68 
0 0 0 187 68 0 187 136 0 187 170 119 170 136 170 170 136 170 170 136 170 170 136 170 
170 136 170 221 187 0 170 136 170 170 136 170 170 136 170 255 0 0 255 0 0 255 0 0 
187 68 0 187 68 0 187 136 0 187 170 119 170 136 170 170 136 170 170 136 170 170 136 170 
170 136 170 170 136 170 170 136 170 170 136 170 170 136 170 255 0 0 255 0 0 0 0 0 